<svg width="24" height="24" viewBox="0 0 24 24" fill="none" xmlns="http://www.w3.org/2000/svg">
<path d="M10.486 15.4224C10.3403 15.5733 10.2596 15.7753 10.2615 15.9851C10.2633 16.1949 10.3474 16.3955 10.4958 16.5438C10.6441 16.6922 10.8447 16.7763 11.0545 16.7781C11.2642 16.7799 11.4663 16.6993 11.6172 16.5536L15.8844 12.2704C15.9217 12.2332 15.9512 12.1891 15.9714 12.1405C15.9915 12.0919 16.0019 12.0398 16.0019 11.9872C16.0019 11.9346 15.9915 11.8825 15.9714 11.8339C15.9512 11.7853 15.9217 11.7411 15.8844 11.704L11.6172 7.42238C11.4663 7.27665 11.2642 7.19601 11.0545 7.19784C10.8447 7.19966 10.6441 7.28379 10.4958 7.43212C10.3474 7.58045 10.2633 7.7811 10.2615 7.99086C10.2596 8.20061 10.3403 8.40269 10.486 8.55358L13.1196 11.2H2.39961C2.18744 11.2 1.98395 11.2843 1.83392 11.4343C1.68389 11.5843 1.59961 11.7878 1.59961 12C1.59961 12.2121 1.68389 12.4156 1.83392 12.5657C1.98395 12.7157 2.18744 12.8 2.39961 12.8H13.1196L10.486 15.4224ZM19.1996 1.59998H8.79961C8.58744 1.59998 8.38395 1.68426 8.23392 1.83429C8.0839 1.98432 7.99961 2.1878 7.99961 2.39998C7.99961 2.61215 8.0839 2.81563 8.23392 2.96566C8.38395 3.11569 8.58744 3.19998 8.79961 3.19998H18.3996C18.6118 3.19998 18.8153 3.28426 18.9653 3.43429C19.1153 3.58432 19.1996 3.7878 19.1996 3.99998V20C19.1996 20.2122 19.1153 20.4156 18.9653 20.5657C18.8153 20.7157 18.6118 20.8 18.3996 20.8H8.39961C8.18744 20.8 7.98395 20.8843 7.83392 21.0343C7.6839 21.1843 7.59961 21.3878 7.59961 21.6C7.59961 21.8122 7.6839 22.0156 7.83392 22.1657C7.98395 22.3157 8.18744 22.4 8.39961 22.4H19.1996C19.624 22.4 20.0309 22.2314 20.331 21.9313C20.631 21.6313 20.7996 21.2243 20.7996 20.8V3.19998C20.7996 2.77563 20.631 2.36866 20.331 2.0686C20.0309 1.76855 19.624 1.59998 19.1996 1.59998Z" fill="white"/>
</svg>
